<svg xmlns="http://www.w3.org/2000/svg" viewBox="0 0 23.5 24.64"><defs><style>.cls-1{fill:none;stroke:#5056cc;stroke-miterlimit:10;stroke-width:0.5px;}.cls-2{fill:#4b4b4b;}</style></defs><title>3</title><g id="Layer_2" data-name="Layer 2"><g id="Layer_2-2" data-name="Layer 2"><path class="cls-1" d="M8.82,4.18s-1.93,4-4.45,5.4c0,0,8.55,7.2,16,2.34"/><path class="cls-1" d="M10.91,4.17S9.41,8,6.62,9.59c0,0,3.23,3.5,13.14,2.38"/><path class="cls-1" d="M15.88,4.32s-.06,3.36-9.55,5.33"/><path class="cls-1" d="M17.6,4.5s-1.26,5.22-11,5.09"/><rect class="cls-2" x="11.87" width="1.98" height="23.88"/><rect class="cls-2" x="7.38" y="3.51" width="10.98" height="1.15"/><rect class="cls-2" x="16.63" y="2.21" width="1.06" height="1.87"/><rect class="cls-2" x="14.68" y="2.24" width="1.06" height="1.87"/><rect class="cls-2" x="9.85" y="2.31" width="1.06" height="1.87"/><rect class="cls-2" x="7.9" y="2.34" width="1.06" height="1.87"/><rect class="cls-2" x="19.9" y="9.5" width="1.1" height="13.26"/><rect class="cls-2" x="17.41" y="11.45" width="6.09" height="0.64"/><rect class="cls-2" x="22.54" y="10.73" width="0.59" height="1.04"/><rect class="cls-2" x="21.46" y="10.75" width="0.59" height="1.04"/><rect class="cls-2" x="18.78" y="10.78" width="0.59" height="1.04"/><rect class="cls-2" x="17.7" y="10.8" width="0.59" height="1.04"/><rect class="cls-2" x="3.4" y="6.53" width="1.5" height="18.11"/><rect class="cls-2" y="9.2" width="8.33" height="0.87"/><rect class="cls-2" x="7.01" y="8.21" width="0.8" height="1.42"/><rect class="cls-2" x="5.53" y="8.23" width="0.8" height="1.42"/><rect class="cls-2" x="1.87" y="8.28" width="0.8" height="1.42"/><rect class="cls-2" x="0.39" y="8.31" width="0.8" height="1.42"/></g></g></svg>