<svg xmlns="http://www.w3.org/2000/svg" width="52.671" height="96.782" viewBox="0 0 52.671 96.782">
  <g id="ikonka2" transform="translate(-381.977 -104.778)">
    <rect id="Rectangle_52" data-name="Rectangle 52" width="5.399" height="1.706" transform="translate(384.404 199.054)" fill="#4b4b4b"/>
    <g id="Group_11" data-name="Group 11" transform="translate(381.977 104.778)">
      <rect id="Rectangle_53" data-name="Rectangle 53" width="22.346" height="2.185" transform="translate(6.337 94.251) rotate(-45)" fill="#4b4b4b"/>
      <rect id="Rectangle_54" data-name="Rectangle 54" width="37.105" height="2.185" transform="translate(2.427 94.306) rotate(-70.267)" fill="#4b4b4b"/>
      <rect id="Rectangle_55" data-name="Rectangle 55" width="12.456" height="2.185" transform="translate(14.791 60.583) rotate(-90)" fill="#4b4b4b"/>
      <g id="Group_9" data-name="Group 9" transform="translate(0 37.88)">
        <rect id="Rectangle_56" data-name="Rectangle 56" width="52.671" height="2.185" transform="translate(0 8.209)" fill="#4b4b4b"/>
        <rect id="Rectangle_57" data-name="Rectangle 57" width="18.417" height="2.185" transform="translate(36.081 0.048) rotate(26.92)" fill="#4b4b4b"/>
        <rect id="Rectangle_58" data-name="Rectangle 58" width="18.417" height="2.185" transform="translate(17.685 1.95) rotate(153.08)" fill="#4b4b4b"/>
        <rect id="Rectangle_59" data-name="Rectangle 59" width="19.455" height="2.185" transform="translate(36.053 2.185) rotate(180)" fill="#4b4b4b"/>
      </g>
      <g id="Group_10" data-name="Group 10" transform="translate(2.249 20.158)">
        <rect id="Rectangle_60" data-name="Rectangle 60" width="49.276" height="2.044" transform="translate(0 7.68)" fill="#4b4b4b"/>
        <rect id="Rectangle_61" data-name="Rectangle 61" width="17.229" height="2.044" transform="translate(33.755 0.045) rotate(26.92)" fill="#4b4b4b"/>
        <rect id="Rectangle_62" data-name="Rectangle 62" width="17.229" height="2.044" transform="translate(16.545 1.825) rotate(153.08)" fill="#4b4b4b"/>
        <rect id="Rectangle_63" data-name="Rectangle 63" width="18.201" height="2.044" transform="translate(33.728 2.044) rotate(180)" fill="#4b4b4b"/>
      </g>
      <rect id="Rectangle_64" data-name="Rectangle 64" width="17.543" height="2.531" transform="translate(17.896 38.643) rotate(-90)" fill="#4b4b4b"/>
      <rect id="Rectangle_65" data-name="Rectangle 65" width="16.771" height="2.531" transform="translate(33.483 38.349) rotate(-90)" fill="#4b4b4b"/>
      <rect id="Rectangle_66" data-name="Rectangle 66" width="23.688" height="2.185" transform="translate(46.072 96.743) rotate(-135)" fill="#4b4b4b"/>
      <rect id="Rectangle_67" data-name="Rectangle 67" width="36.848" height="2.185" transform="translate(49.47 95.991) rotate(-109.733)" fill="#4b4b4b"/>
      <rect id="Rectangle_68" data-name="Rectangle 68" width="14.987" height="2.185" transform="translate(37.055 61.53) rotate(-90)" fill="#4b4b4b"/>
      <rect id="Rectangle_69" data-name="Rectangle 69" width="5.422" height="1.589" transform="translate(46.086 95.194)" fill="#4b4b4b"/>
      <rect id="Rectangle_70" data-name="Rectangle 70" width="34.907" height="2.786" transform="translate(8.832 77.681)" fill="#4b4b4b"/>
      <rect id="Rectangle_71" data-name="Rectangle 71" width="21.305" height="2.458" transform="translate(16.535 57.851)" fill="#4b4b4b"/>
      <rect id="Rectangle_72" data-name="Rectangle 72" width="3.114" height="32.662" transform="translate(36.251 58.203) rotate(53.572)" fill="#4b4b4b"/>
      <rect id="Rectangle_73" data-name="Rectangle 73" width="3.114" height="32.795" transform="translate(43.673 77.788) rotate(127.305)" fill="#4b4b4b"/>
      <path id="Path_76" data-name="Path 76" d="M393.032,147.541l.991,1.676,21.759-10.67-.991-1.676Z" transform="translate(-377.013 -90.369)" fill="#4b4b4b"/>
      <path id="Path_77" data-name="Path 77" d="M415.9,147.349l-.932,1.713L392.7,139.128l.932-1.713Z" transform="translate(-377.164 -90.125)" fill="#4b4b4b"/>
      <rect id="Rectangle_74" data-name="Rectangle 74" width="11.568" height="2.193" transform="translate(21.099)" fill="#4b4b4b"/>
      <path id="Path_78" data-name="Path 78" d="M405.695,125.744l2.111-.041-2.395-20.912-2.111.041Z" transform="translate(-372.403 -104.772)" fill="#4b4b4b"/>
      <path id="Path_79" data-name="Path 79" d="M396.759,125.739l-2.166-.044,2.42-20.91,2.166.044Z" transform="translate(-376.313 -104.776)" fill="#4b4b4b"/>
    </g>
  </g>
</svg>
