<svg xmlns="http://www.w3.org/2000/svg" viewBox="0 0 101.16 125.1"><defs><style>.cls-1{fill:#edb900;}.cls-2{fill:#f7d200;}.cls-3{fill:#f79600;}.cls-4{fill:#edecee;}.cls-5{fill:#e6e3e5;}.cls-6{fill:#f7cb00;}.cls-7{fill:#f5ad00;}.cls-8{fill:#f5a000;}.cls-9{fill:#464546;}.cls-10{fill:#d7d6d7;}.cls-11{fill:#ebebed;}.cls-12{fill:#d8d6d6;}.cls-13{fill:#eae9ee;}</style></defs><title>domecek</title><g id="Layer_2" data-name="Layer 2"><g id="Layer_1-2" data-name="Layer 1"><polygon class="cls-1" points="100.92 35.1 46.2 55.47 46.2 125.1 100.2 102.54 100.92 35.1"/><polygon class="cls-2" points="40.8 122.04 46.2 125.1 46.2 55.8 101.16 35.64 79.2 0 23.76 18.9 0 31.86 0 98.1 6.48 102.96 6.48 38.52 22.68 29.34 41.04 56.7 40.8 122.04"/><polygon class="cls-3" points="15.3 39.3 25.74 33.74 22.68 29.34 6.48 38.52 6.48 100.37 13.86 105.75 15.3 39.3"/><polygon class="cls-4" points="40.8 122 6.48 102.89 6.5 99.61 40.62 119.33 40.8 122"/><polygon class="cls-5" points="40.68 119.32 6.5 99.61 9.95 98.89 40.68 115.74 40.68 119.32"/><polygon class="cls-4" points="40.72 115.77 9.95 98.89 9.86 95.06 40.79 113.17 40.72 115.77"/><polygon class="cls-5" points="40.79 113.17 9.86 95.06 14.36 92.45 40.8 106.77 40.79 113.17"/><polygon class="cls-6" points="25.74 33.74 15.3 39.3 14.13 92.58 40.89 107.04 41.34 56.93 25.74 33.74"/><polygon class="cls-6" points="17.55 70.68 34.11 79.59 34.11 108.57 29.16 105.69 29.25 83.55 21.69 80.04 21.7 101.97 16.81 99.17 17.55 70.68"/><polygon class="cls-7" points="22.23 67.71 39.6 77.34 34.11 79.59 17.55 70.68 22.23 67.71"/><polygon class="cls-3" points="26.7 99.27 26.68 82.36 21.69 80.04 21.7 101.97 26.7 99.27"/><polygon class="cls-3" points="40.35 105.63 34.11 108.57 33.93 79.53 39.6 77.34 40.35 105.63"/><polygon class="cls-8" points="29.14 100.69 26.55 99.24 26.68 82.36 29.25 83.56 29.14 100.69"/><polyline class="cls-9" points="29.88 21.06 45.6 15.42 64.44 44.22 48.36 50.1 29.88 21.54"/><polyline class="cls-9" points="62.96 10.94 78.68 5.3 97.52 34.1 81.44 39.98 62.96 11.42"/><polygon class="cls-10" points="90.96 75.14 82.08 78.38 82.44 58.58 91.2 56.06 90.96 75.14"/><polygon class="cls-10" points="73.32 34.5 64.32 37.74 53.52 21.66 62.64 18.42 73.32 34.5"/><polygon class="cls-11" points="32.34 65.4 28.57 64.24 29.26 46.6 32.4 48 32.34 65.4"/><polygon class="cls-12" points="28.57 64.24 25.52 64.87 25.44 44.94 29.26 46.6 28.57 64.24"/><polygon class="cls-13" points="28.57 64.24 25.52 64.87 32.58 68.4 32.34 65.4 28.57 64.24"/><polygon class="cls-10" points="68.84 75.14 59.96 78.38 60.32 58.58 69.08 56.06 68.84 75.14"/></g></g></svg>