<svg xmlns="http://www.w3.org/2000/svg" width="1230.842" height="1225.493" viewBox="0 0 1230.842 1225.493">
  <g id="MODRY-DOMEK" transform="translate(-821.445 -155.65)">
    <g id="Group_1" data-name="Group 1" transform="translate(560.388 453.912)">
      <path id="Path_65" data-name="Path 65" d="M1166.872,706.993l317.035-143.865,7.993-143.865L713.964,75.588,261.057,307.369Z" transform="translate(0 0)" fill="#e7e6e8"/>
      <path id="Path_66" data-name="Path 66" d="M799.889,325.51,488.182,477.367l-5.328-138.536L799.889,194.966Z" transform="translate(684.017 368.162)" fill="#e7e6e8"/>
      <path id="Path_67" data-name="Path 67" d="M261.057,132.341l7.992,130.544L1172.2,670.5l-5.328-138.536Z" transform="translate(0 175.028)" fill="#f4f3f5"/>
      <path id="Path_68" data-name="Path 68" d="M743.841,215.551l-1.184,109.527L353.69,495.584l7.992-143.865Z" transform="translate(285.678 431.646)" fill="#e7e6e8"/>
      <path id="Path_69" data-name="Path 69" d="M266.928,276.951,500.19,160.32l511.371,225.122L629.254,522.053Z" transform="translate(18.106 261.312)" fill="#f0eef0"/>
      <path id="Path_70" data-name="Path 70" d="M615.887,577.845,261.057,303.437l22.489-114.559,339.836,245.1Z" transform="translate(23.977 349.385)" fill="#f3f2f3"/>
    </g>
    <g id="Layer_2" data-name="Layer 2" transform="translate(1185.613 155.65)">
      <g id="Layer_1" data-name="Layer 1">
        <path id="Path_28" data-name="Path 28" d="M410.452,35.1,46.2,170.7V634.2L405.659,484.024Z" transform="translate(261.337 198.548)" fill="#3745c9"/>
        <path id="Path_29" data-name="Path 29" d="M271.591,812.378l35.946,20.369V371.441l365.849-134.2L527.207,0,158.162,125.811,0,212.081V653.017l43.135,32.351V256.414l107.838-61.108L273.189,377.432Z" fill="#92a0e8"/>
        <path id="Path_30" data-name="Path 30" d="M65.192,95.64l69.5-37.011L114.318,29.34,6.48,90.448V502.162l49.126,35.813Z" transform="translate(36.655 165.966)" fill="#3745c9"/>
        <path id="Path_31" data-name="Path 31" d="M234.936,248.652,6.48,121.444,6.613,99.61,233.738,230.879Z" transform="translate(36.655 563.459)" fill="#edecee"/>
        <path id="Path_32" data-name="Path 32" d="M234.024,234.885,6.5,103.683,29.465,98.89,234.024,211.055Z" transform="translate(36.768 559.386)" fill="#e6e3e5"/>
        <path id="Path_33" data-name="Path 33" d="M215.284,232.919,10.459,120.555,9.86,95.06,215.75,215.612Z" transform="translate(55.775 537.721)" fill="#edecee"/>
        <path id="Path_34" data-name="Path 34" d="M215.75,230.376,9.86,109.824,39.815,92.45l176,95.323Z" transform="translate(55.775 522.957)" fill="#e6e3e5"/>
        <path id="Path_35" data-name="Path 35" d="M91.414,33.74l-69.5,37.011L14.13,425.417l178.132,96.255,3-333.565Z" transform="translate(79.928 190.855)" fill="#92a0e8"/>
        <path id="Path_36" data-name="Path 36" d="M21.736,70.68,131.97,129.991V322.9L99.02,303.729l.6-147.378L49.294,132.986l.067,145.98L16.81,260.328Z" transform="translate(95.088 399.812)" fill="#92a0e8"/>
        <path id="Path_37" data-name="Path 37" d="M48.7,67.71l115.626,64.1-36.545,14.977L17.55,87.48Z" transform="translate(99.274 383.012)" fill="#3745c9"/>
        <path id="Path_38" data-name="Path 38" d="M55.04,208.047,54.907,95.483,21.69,80.04l.067,145.98Z" transform="translate(122.693 452.758)" fill="#3745c9"/>
        <path id="Path_39" data-name="Path 39" d="M76.666,265.657,35.128,285.227,33.93,91.918,71.673,77.34Z" transform="translate(191.93 437.485)" fill="#3745c9"/>
        <path id="Path_40" data-name="Path 40" d="M43.791,204.376,26.55,194.724,27.415,82.36l17.108,7.988Z" transform="translate(150.184 465.882)" fill="#3745c9"/>
        <path id="Path_41" data-name="Path 41" d="M29.88,52.964,134.523,15.42,259.934,207.132,152.895,246.273,29.88,56.159" transform="translate(169.021 87.226)" fill="gray"/>
        <path id="Path_42" data-name="Path 42" d="M62.96,42.844,167.6,5.3,293.014,197.011,185.975,236.153,62.96,46.039" transform="translate(356.143 29.98)" fill="gray"/>
        <path id="Path_43" data-name="Path 43" d="M141.191,183.069,82.08,204.636l2.4-131.8L142.789,56.06Z" transform="translate(464.298 317.112)" fill="#d7d6d7"/>
        <path id="Path_44" data-name="Path 44" d="M185.322,125.459l-59.91,21.568L53.52,39.988,114.229,18.42Z" transform="translate(302.744 104.195)" fill="#d7d6d7"/>
        <path id="Path_45" data-name="Path 45" d="M53.666,171.745l-25.1-7.722L33.163,46.6l20.9,9.319Z" transform="translate(161.61 263.6)" fill="#ebebed"/>
        <path id="Path_46" data-name="Path 46" d="M46.275,173.413l-20.3,4.194L25.44,44.94,50.868,55.99Z" transform="translate(143.905 254.21)" fill="#d8d6d6"/>
        <path id="Path_47" data-name="Path 47" d="M45.823,64.24l-20.3,4.194,47,23.5-1.6-19.97Z" transform="translate(144.358 363.383)" fill="#eae9ee"/>
        <path id="Path_48" data-name="Path 48" d="M119.071,183.069,59.96,204.636l2.4-131.8L120.669,56.06Z" transform="translate(339.173 317.112)" fill="#d7d6d7"/>
      </g>
    </g>
    <g id="Layer_1-2" data-name="Layer 1" transform="translate(926.507 512.5)">
      <path id="Path_55" data-name="Path 55" d="M40.555,521.61a24.79,24.79,0,0,0,26.73,0L55.586,71.63,173.294,19.382s4.122-10.243-6.061-12.122L54.556,37.566,22.25,80.964v4l9.455-1.273Z" transform="translate(112.472 36.598)" fill="#fff"/>
      <path id="Path_56" data-name="Path 56" d="M17.26,80.273,121.209,3.9a3.273,3.273,0,0,1,4.485,4.667l-78.8,99.4" transform="translate(87.217 16.559)" fill="#464546"/>
      <path id="Path_57" data-name="Path 57" d="M49.57,17.57l25.578,201.9a3.273,3.273,0,0,1-6.364,1.212L17.87,32.784" transform="translate(90.304 88.778)" fill="#464546"/>
      <path id="Path_58" data-name="Path 58" d="M108.985,127.162.733,5.333A3.273,3.273,0,0,1,5.158.605L146.686,108.191" transform="translate(-0.023 -0.024)" fill="#464546"/>
      <path id="Path_59" data-name="Path 59" d="M80.555,523.61a24.79,24.79,0,0,0,26.73,0l-11.7-449.98L213.294,21.382s4.122-10.243-6.061-12.122L94.556,39.566,62.25,82.964v4l9.455-1.273Z" transform="translate(760.919 74.72)" fill="#fff"/>
      <path id="Path_60" data-name="Path 60" d="M57.2,71.484l86.19-63.4a6.173,6.173,0,0,1,8.546,8.91L86.657,99.123" transform="translate(735.36 60.076)" fill="#464546"/>
      <path id="Path_61" data-name="Path 61" d="M89.267,18.67,112.3,198.747a4.788,4.788,0,0,1-9.334,1.818L57.81,33.641" transform="translate(738.447 122.346)" fill="#464546"/>
      <path id="Path_62" data-name="Path 62" d="M140.526,120.223,42.941,10.88a4.91,4.91,0,0,1,6.667-7.152l128.254,97.766" transform="translate(656.883 41.522)" fill="#464546"/>
      <path id="Path_63" data-name="Path 63" d="M40.92,16.666c7.516,1.273,14,13.153,11.759,22.366C48.861,54.548,21.161,57.579,16.312,50.79S28.01,14.484,40.92,16.666Z" transform="translate(78.043 83.621)" fill="#c4c4c4"/>
      <path id="Path_64" data-name="Path 64" d="M80.88,18.266c7.516,1.273,14,13.153,11.759,22.366C88.821,56.148,61.121,59.179,56.272,52.39S67.97,16.084,80.88,18.266Z" transform="translate(726.287 119.719)" fill="#c4c4c4"/>
    </g>
  </g>
</svg>
