<svg xmlns="http://www.w3.org/2000/svg" xmlns:xlink="http://www.w3.org/1999/xlink" viewBox="0 0 341.69 217.17"><defs><style>.cls-1{fill:#434343;}.cls-2,.cls-27{fill:#50254d;}.cls-2,.cls-24{stroke:#715cc0;}.cls-2,.cls-24,.cls-28,.cls-29{stroke-miterlimit:10;}.cls-2{stroke-width:0.75px;}.cls-3{fill:#4b4b4b;}.cls-4{fill:#4b4ae0;}.cls-5{fill:#b4a3f7;}.cls-6{fill:#9681f7;}.cls-7{fill:#aa99f7;}.cls-8{fill:#ab98f7;}.cls-9{fill:#a58ef7;}.cls-10{fill:#f5e4c6;}.cls-11{fill:#f7d99e;}.cls-12{fill:#f7cf8d;}.cls-13{fill:#f2cd44;}.cls-14{fill:#f3bf38;}.cls-15{fill:#f7d190;}.cls-16{fill:#f7d497;}.cls-17{fill:#f7d08c;}.cls-18{fill:#f7d296;}.cls-19{fill:url(#linear-gradient);}.cls-20{fill:#2c2c9a;}.cls-21{fill:#3435bf;}.cls-22{fill:#2e2b8e;}.cls-23{fill:#3232ba;}.cls-24,.cls-29{fill:none;}.cls-25{fill:#3432c5;}.cls-26{fill:#f4dfbf;}.cls-28{fill:#c6c2f7;}.cls-28,.cls-29{stroke:#fff;}.cls-30{fill:#883b6b;}.cls-31{fill:#aa96f7;}.cls-32{fill:#9783f7;}.cls-33{fill:#f67189;}.cls-34{fill:#de485a;}.cls-35{fill:#f6e8cd;}.cls-36{fill:#fff;}</style><linearGradient id="linear-gradient" x1="36.4" y1="56.85" x2="36.4" y2="57.03" gradientTransform="translate(56.56 -8.32) rotate(54.23)" gradientUnits="userSpaceOnUse"><stop offset="0" stop-color="#fff"/><stop offset="0.27" stop-color="#fdfaf4"/><stop offset="0.75" stop-color="#f8ecd8"/><stop offset="1" stop-color="#f5e4c6"/></linearGradient></defs><title>domy</title><g id="Layer_2" data-name="Layer 2"><g id="Layer_3" data-name="Layer 3"><polygon class="cls-1" points="66.67 32.22 64.54 30.36 63.82 31.47 66.67 32.22"/><polygon class="cls-1" points="66.34 33.54 64.18 32.94 64.3 34.11 66.34 33.54"/><ellipse class="cls-2" cx="266.62" cy="28.44" rx="0.18" ry="0.27"/><path class="cls-3" d="M163.65,141.62v-.7l-.21,0s0-.81.63-.9H167s.72.16.6.83h-.14v.86h-.28l0-.73a.55.55,0,0,0-.44-.48h-2.61a.33.33,0,0,0-.22.44v.73h-.29Z"/><rect class="cls-3" x="69.41" y="190.1" width="3.73" height="1.18"/><rect class="cls-3" x="70.39" y="184.41" width="15.42" height="1.51" transform="translate(-108.06 109.46) rotate(-45)"/><rect class="cls-3" x="61.64" y="177.57" width="25.61" height="1.51" transform="translate(-118.54 188.19) rotate(-70.27)"/><rect class="cls-3" x="74.4" y="161.8" width="8.6" height="1.51" transform="translate(-83.85 241.25) rotate(-90)"/><rect class="cls-3" x="67.74" y="156.85" width="36.35" height="1.51"/><rect class="cls-3" x="91.61" y="154.01" width="12.71" height="1.51" transform="translate(80.68 -27.58) rotate(26.92)"/><rect class="cls-3" x="67.58" y="153.98" width="12.71" height="1.51" transform="translate(209.92 259.22) rotate(153.08)"/><rect class="cls-3" x="79.19" y="151.18" width="13.43" height="1.51" transform="translate(171.81 303.87) rotate(180)"/><rect class="cls-3" x="69.29" y="144.25" width="34.01" height="1.41"/><rect class="cls-3" x="91.62" y="141.6" width="11.89" height="1.41" transform="translate(75 -28.75) rotate(26.92)"/><rect class="cls-3" x="69.14" y="141.57" width="11.89" height="1.41" transform="translate(206.45 235.13) rotate(153.08)"/><rect class="cls-3" x="80.01" y="138.95" width="12.56" height="1.41" transform="translate(172.58 279.31) rotate(180)"/><rect class="cls-3" x="74.91" y="144.78" width="12.11" height="1.75" transform="translate(-64.69 226.62) rotate(-90)"/><rect class="cls-3" x="85.93" y="144.84" width="11.57" height="1.75" transform="translate(-54 237.44) rotate(-90)"/><rect class="cls-3" x="86.11" y="184.74" width="16.35" height="1.51" transform="translate(29.8 383.32) rotate(-135)"/><rect class="cls-3" x="85.58" y="178.31" width="25.43" height="1.51" transform="translate(-37.06 332.04) rotate(-109.73)"/><rect class="cls-3" x="88.89" y="161.58" width="10.34" height="1.51" transform="translate(-68.26 256.4) rotate(-90)"/><rect class="cls-3" x="99.54" y="190.74" width="3.74" height="1.1"/><rect class="cls-3" x="73.83" y="178.65" width="24.09" height="1.92"/><rect class="cls-3" x="79.15" y="164.96" width="14.7" height="1.7"/><rect class="cls-3" x="83.25" y="161.49" width="2.15" height="22.54" transform="translate(173.26 2.32) rotate(53.57)"/><rect class="cls-3" x="87.15" y="161.4" width="2.15" height="22.63" transform="translate(279.08 207.22) rotate(127.31)"/><polygon class="cls-3" points="78.8 164.5 79.48 165.65 94.5 158.29 93.81 157.13 78.8 164.5"/><polygon class="cls-3" points="94.47 164.53 93.83 165.71 78.46 158.86 79.1 157.68 94.47 164.53"/><rect class="cls-3" x="82.3" y="125.04" width="7.98" height="1.51"/><polygon class="cls-3" points="90.72 139.51 92.17 139.48 90.52 125.05 89.06 125.08 90.72 139.51"/><polygon class="cls-3" points="81.85 139.51 80.36 139.47 82.03 125.04 83.52 125.08 81.85 139.51"/><polygon class="cls-4" points="155.08 212.94 154.36 131.82 136.84 131.58 136.12 116.7 95.8 114.54 95.8 211.98 155.08 212.94"/><polygon class="cls-5" points="293.8 66.78 270.76 66.78 272.56 105.3 206.68 107.82 206.68 117.9 183.28 120.42 181.84 210.78 296.32 210.78 293.8 66.78"/><polygon class="cls-6" points="234.76 155.34 222.88 155.7 222.16 182.34 240.52 181.98 234.76 155.34"/><polygon class="cls-7" points="219.28 117.54 242.68 116.1 242.68 133.02 219.64 133.74 219.28 117.54"/><polygon class="cls-8" points="199.48 154.98 198.76 179.1 188.32 179.1 191.2 154.26 199.48 154.98"/><rect class="cls-9" x="36.94" y="88.56" width="32.58" height="124.92"/><polygon class="cls-10" points="12.61 32.97 12.61 209.61 59.65 209.61 59.65 65.61 12.61 32.97"/><polygon class="cls-11" points="31.33 46.05 52.57 61.35 52.57 46.77 31.33 46.05"/><polygon class="cls-11" points="18.2 66.09 18.68 74.97 55.65 74.25 55.16 67.29 18.2 66.09"/><polygon class="cls-12" points="19.29 79.05 19.77 84.09 54.56 82.17 53.84 78.57 19.29 79.05"/><polygon class="cls-13" points="19.29 88.41 19.52 94.41 54.56 92.97 54.33 86.49 19.29 88.41"/><polygon class="cls-14" points="19.16 98.73 19.41 104.25 54.69 104.01 53.73 98.25 19.16 98.73"/><polygon class="cls-15" points="18.32 109.77 18.8 114.57 55.52 114.09 54.56 107.37 18.32 109.77"/><polygon class="cls-16" points="17.96 121.53 17.96 128.73 55.88 128.97 55.65 122.97 17.96 121.53"/><polygon class="cls-17" points="17.36 134.01 17.13 140.49 55.52 141.93 56.73 132.09 17.36 134.01"/><polygon class="cls-18" points="15.93 147.21 17.61 155.85 57.92 156.81 55.05 147.45 15.93 147.21"/><ellipse class="cls-19" cx="36.4" cy="51.06" rx="0.6" ry="23.88" transform="translate(-26.31 50.75) rotate(-54.23)"/><path class="cls-9" d="M12,210.54c-.37.69,0,1.35-.54,1.74C9.44,213.72-.1,207.39.22,200.88c0-.24.21-3.53,2.1-4.38,1.71-.77,3.69.94,4.68.06.44-.39.59-1.2.18-2.82C5.68,187.83.55,186.67,0,181.86c-.16-1.57.14-3.74,1.32-4.32s2.26.59,3.24,0,1-2.46.84-3.72c-.47-4.77-2.78-6.25-4.08-10.32C0,159.07.19,153,3.52,150.18a5.12,5.12,0,0,1,3.36-1.44c3.1.09,5.29,4.19,8.16,10.2,5.44,11.37,9.57,21.69,13.56,22.44A7.41,7.41,0,0,0,33,181c1-.51,1.2-1,1.8-1.08,1.18-.08,2,1.82,4,5.76,2.66,5.44,2.86,5.64,3.24,5.88,2.52,1.56,4.93-.66,8.16,1.32a6.61,6.61,0,0,1,2.16,2c1,1.45.55,2.21,1.2,3.36,1,1.85,2.87,1.29,5.16,3,1.59,1.19,3.37,3.44,3.24,5.52-.19,3.19-4.8,5.24-6.24,5.88C39.9,219.74,14.51,205.94,12,210.54Z"/><polygon class="cls-20" points="76.78 100.05 116.38 98.07 118.36 212.01 71.38 212.19 76.78 100.05"/><rect class="cls-21" x="99.28" y="103.92" width="10.62" height="25.38"/><rect class="cls-21" x="81.28" y="137.49" width="13.5" height="31.32"/><polygon class="cls-22" points="191.56 211.32 194.08 140.04 135.76 144.9 139.72 212.58 191.56 211.32"/><polygon class="cls-23" points="134.14 140.58 133.78 145.08 196.06 140.04 196.06 135.36 134.14 140.58"/><rect class="cls-24" x="144.04" y="150.91" width="11.34" height="14.49"/><line class="cls-24" x1="143.95" y1="157.25" x2="155.56" y2="157.03"/><line class="cls-24" x1="149.75" y1="165.53" x2="149.53" y2="150.86"/><rect class="cls-24" x="159.87" y="148.8" width="11.34" height="16.05"/><line class="cls-24" x1="159.78" y1="155.83" x2="171.39" y2="155.58"/><line class="cls-24" x1="165.58" y1="165" x2="165.36" y2="148.75"/><rect class="cls-24" x="176.95" y="147.38" width="11.34" height="17.31"/><line class="cls-24" x1="176.86" y1="154.96" x2="188.47" y2="154.69"/><line class="cls-24" x1="182.67" y1="164.86" x2="182.44" y2="147.33"/><rect class="cls-24" x="144.67" y="173.66" width="10.43" height="13.33"/><line class="cls-24" x1="144.59" y1="179.5" x2="155.26" y2="179.29"/><line class="cls-24" x1="149.92" y1="187.11" x2="149.72" y2="173.62"/><rect class="cls-24" x="159.71" y="173.52" width="10.43" height="14.76"/><line class="cls-24" x1="159.62" y1="179.98" x2="170.3" y2="179.75"/><line class="cls-24" x1="164.96" y1="188.42" x2="164.76" y2="173.47"/><rect class="cls-24" x="175.42" y="173.78" width="10.43" height="15.92"/><line class="cls-24" x1="175.34" y1="180.75" x2="186.02" y2="180.5"/><line class="cls-24" x1="180.68" y1="189.85" x2="180.47" y2="173.73"/><rect class="cls-24" x="144.67" y="187.22" width="10.43" height="13.33"/><line class="cls-24" x1="144.59" y1="193.06" x2="155.26" y2="192.85"/><line class="cls-24" x1="149.92" y1="200.67" x2="149.72" y2="187.18"/><rect class="cls-24" x="159.71" y="187.08" width="10.43" height="14.76"/><line class="cls-24" x1="159.62" y1="193.54" x2="170.3" y2="193.31"/><line class="cls-24" x1="164.96" y1="201.98" x2="164.76" y2="187.03"/><rect class="cls-24" x="175.42" y="187.34" width="10.43" height="15.92"/><line class="cls-24" x1="175.34" y1="194.31" x2="186.02" y2="194.06"/><line class="cls-24" x1="180.68" y1="203.41" x2="180.47" y2="187.29"/><rect class="cls-25" x="142.33" y="164.5" width="47.07" height="3.24"/><polygon class="cls-26" points="285.04 28.26 321.04 28.02 318.64 210.18 275.44 210.42 285.04 28.26"/><rect class="cls-27" x="283.54" y="25.2" width="38.7" height="3.42"/><rect class="cls-27" x="299.98" y="22.04" width="14.1" height="3.42"/><line class="cls-2" x1="304.72" y1="6.54" x2="304.72" y2="22.2"/><line class="cls-2" x1="303.04" y1="11.04" x2="307.54" y2="9.48"/><line class="cls-2" x1="301.6" y1="14.94" x2="307.66" y2="12.36"/><line class="cls-2" x1="302.26" y1="15.9" x2="307.6" y2="14.76"/><line class="cls-2" x1="311.68" x2="311.68" y2="22.92"/><rect class="cls-28" x="290.38" y="32.91" width="9.9" height="32.94"/><line class="cls-29" x1="295.42" y1="32.82" x2="294.7" y2="66.12"/><line class="cls-29" x1="290.29" y1="42.04" x2="300.12" y2="42.2"/><line class="cls-29" x1="290.29" y1="52.05" x2="300.28" y2="52.21"/><rect class="cls-28" x="304.81" y="71.61" width="9.83" height="38.89"/><line class="cls-29" x1="309.82" y1="71.5" x2="309.1" y2="110.82"/><line class="cls-29" x1="304.72" y1="82.39" x2="314.48" y2="82.58"/><line class="cls-29" x1="304.72" y1="94.21" x2="314.64" y2="94.39"/><rect class="cls-28" x="287.07" y="123.97" width="12.09" height="41.94"/><line class="cls-29" x1="293.23" y1="123.86" x2="292.35" y2="166.26"/><line class="cls-29" x1="286.96" y1="135.6" x2="298.97" y2="135.8"/><line class="cls-29" x1="286.96" y1="148.34" x2="299.16" y2="148.54"/><rect class="cls-28" x="306.81" y="152.29" width="9.2" height="41.94"/><line class="cls-29" x1="311.49" y1="152.18" x2="310.82" y2="194.58"/><line class="cls-29" x1="306.72" y1="163.92" x2="315.85" y2="164.12"/><line class="cls-29" x1="306.72" y1="176.66" x2="316" y2="176.86"/><path class="cls-27" d="M320.44,211.74c1.43-.58,10.2-4.22,10.08-8.64,0-1.31-.84-2.2-.48-3.84.49-2.21,2.49-3,4.8-4.8.38-.29,7.91-6.25,6.72-11a4.86,4.86,0,0,0-3.12-3.36c-2.67-.83-5.55,1.58-7.68,3.36-4.42,3.71-5.35,7.08-7,6.72-1.21-.27-2.14-2.53-1.68-4.08s2-1.68,2.16-2.88-1.3-2.86-2.88-3.36c-3.79-1.19-10.21,3.57-13.68,8.88-1.27,2-2.48,4.49-4.8,4.8a5.52,5.52,0,0,1-3.12-.72c-2.76-1.41-2.75-3.66-4.32-3.84-2.05-.23-4.08,3.41-4.32,3.84-1.53,2.74-.75,4.17-2.16,5.28s-4,.92-5.76,0c-2.88-1.55-2.4-4.45-4.8-5.28-2.58-.89-5.48,1.67-5.76,1.92-2.61,2.36-2.77,5.86-2.88,8.16a17.8,17.8,0,0,0,1.2,7.44C275.65,220.61,305.48,217.8,320.44,211.74Z"/><rect class="cls-30" x="233.85" y="86.7" width="40.56" height="126"/><line class="cls-29" x1="240.19" y1="86.21" x2="236.4" y2="212.17"/><line class="cls-29" x1="249.11" y1="85.95" x2="244.96" y2="212.18"/><line class="cls-29" x1="257.22" y1="85.95" x2="259.15" y2="212"/><line class="cls-29" x1="266.4" y1="86.18" x2="265.23" y2="212.13"/><line class="cls-29" x1="233.34" y1="93.63" x2="273.86" y2="92.27"/><line class="cls-29" x1="233" y1="110.66" x2="273.78" y2="109.69"/><line class="cls-29" x1="233.32" y1="186.8" x2="273.82" y2="186.44"/><line class="cls-29" x1="233.41" y1="204.8" x2="274.09" y2="203.18"/><line class="cls-29" x1="233" y1="121.31" x2="273.78" y2="120.34"/><line class="cls-29" x1="233" y1="137.66" x2="273.78" y2="136.69"/><line class="cls-29" x1="233" y1="163.04" x2="273.78" y2="162.07"/><polygon class="cls-31" points="190.66 126 199.3 126.72 200.02 147.96 191.38 147.24 190.66 126"/><polygon class="cls-32" points="205.24 156.06 204.16 181.98 214.6 181.62 214.96 157.14 205.24 156.06"/><rect class="cls-33" x="43.96" y="112.32" width="44.16" height="5.94"/><rect class="cls-34" x="43.97" y="118.17" width="44.18" height="17.84"/><rect class="cls-35" x="58.02" y="117.95" width="0.36" height="18.27"/><rect class="cls-35" x="73.75" y="117.95" width="0.36" height="18.27"/><rect class="cls-35" x="65.94" y="106.24" width="0.24" height="43.15" transform="translate(-61.75 193.87) rotate(-90)"/><rect class="cls-34" x="46.09" y="135.87" width="44.18" height="9.4"/><rect class="cls-35" x="60.14" y="135.75" width="0.36" height="9.63"/><rect class="cls-35" x="75.87" y="135.75" width="0.36" height="9.63"/><rect class="cls-34" x="41.77" y="145.04" width="44.18" height="13.73"/><rect class="cls-35" x="55.82" y="144.87" width="0.36" height="14.07"/><rect class="cls-35" x="71.55" y="144.87" width="0.36" height="14.07"/><rect class="cls-34" x="48.73" y="158.82" width="44.18" height="21.58"/><rect class="cls-35" x="62.78" y="158.55" width="0.36" height="22.1"/><rect class="cls-35" x="78.51" y="158.55" width="0.36" height="22.1"/><rect class="cls-35" x="70.68" y="148.91" width="0.29" height="43.15" transform="translate(-99.66 241.3) rotate(-90)"/><rect class="cls-34" x="39.25" y="180.33" width="44.18" height="21.31"/><rect class="cls-35" x="53.3" y="180.07" width="0.36" height="21.82"/><rect class="cls-35" x="69.03" y="180.07" width="0.36" height="21.82"/><rect class="cls-34" x="41.57" y="201.69" width="44.18" height="7.91"/><rect class="cls-35" x="55.62" y="201.59" width="0.36" height="8.1"/><rect class="cls-35" x="71.35" y="201.59" width="0.36" height="8.1"/><path class="cls-36" d="M276.14,215l43.16-14.53c.45-.15.26-.88-.2-.72l-43.16,14.53c-.46.15-.26.88.2.72Z"/><path class="cls-36" d="M307.59,204.31a41,41,0,0,0,13.33,1.29c.48,0,.48-.78,0-.75a40.36,40.36,0,0,1-13.13-1.26.37.37,0,0,0-.2.72Z"/><path class="cls-36" d="M297,207.41l.33-5.76c0-.49-.73-.48-.75,0l-.33,5.76c0,.49.72.49.75,0Z"/><path class="cls-36" d="M38.12,212.17A76.7,76.7,0,0,0,16.37,188c-.39-.28-.77.37-.38.65a75.72,75.72,0,0,1,21.48,23.89.38.38,0,0,0,.65-.38Z"/><path class="cls-36" d="M29.2,199.41l-12.6.44a.38.38,0,0,0,0,.75l12.6-.44a.38.38,0,0,0,0-.75Z"/></g></g></svg>