<?xml version="1.0" encoding="utf-8"?>
<!-- Generator: Adobe Illustrator 24.3.0, SVG Export Plug-In . SVG Version: 6.00 Build 0)  -->
<svg version="1.1" id="Vrstva_1" xmlns="http://www.w3.org/2000/svg" xmlns:xlink="http://www.w3.org/1999/xlink" x="0px" y="0px"
	 viewBox="0 0 47.3 94.8" style="enable-background:new 0 0 47.3 94.8;" xml:space="preserve">
<style type="text/css">
	.st0{fill:#E8E8E8;}
	.st1{fill:#464546;}
	.st2{fill:#C4C4C4;}
</style>
<path class="st0" d="M25.3,92.1c1.3,0.9,3.1,0.9,4.4,0l-1.9-74.2l19.4-8.6c0,0,0.7-1.7-1-2l-18.6,5l-5.3,7.2v0.7l1.6-0.2L25.3,92.1z
	"/>
<path class="st1" d="M17.3,16L34.4,3.4c0.2-0.2,0.6-0.1,0.8,0.1c0.1,0.2,0.1,0.5,0,0.6l-13,16.4"/>
<path class="st1" d="M23.1,17.6l4.2,33.3c0,0.3-0.2,0.6-0.5,0.6c-0.2,0-0.5-0.1-0.5-0.4l-8.4-31"/>
<path class="st1" d="M18,21L0.1,0.9C0,0.7,0,0.3,0.2,0.1C0.4,0,0.7,0,0.9,0.1l23.3,17.8"/>
<path class="st2" d="M19.6,16.6c1.2,0.2,2.3,2.2,1.9,3.7c-0.6,2.6-5.2,3.1-6,1.9S17.5,16.2,19.6,16.6z"/>
</svg>
