<svg xmlns="http://www.w3.org/2000/svg" width="275.606" height="550.681" viewBox="0 0 275.606 550.681">
  <g id="footer_2" data-name="footer 2" transform="translate(-773.896 -77)">
    <ellipse id="Ellipse_2" data-name="Ellipse 2" cx="0.456" cy="0.685" rx="0.456" ry="0.685" transform="translate(858.701 148.429)" fill="#50254d" stroke="#715cc0" stroke-miterlimit="10" stroke-width="0.75"/>
    <path id="Path_117" data-name="Path 117" d="M299.782,28.629l91.284-.609L384.98,489.915l-109.54.609Z" transform="translate(606.082 120.029)" fill="#f4dfbf"/>
    <rect id="Rectangle_113" data-name="Rectangle 113" width="98.13" height="8.672" transform="translate(902.06 140.898)" fill="#50254d"/>
    <rect id="Rectangle_114" data-name="Rectangle 114" width="35.753" height="8.672" transform="translate(943.747 132.886)" fill="#50254d"/>
    <line id="Line_24" data-name="Line 24" y2="39.708" transform="translate(955.765 93.583)" fill="#50254d" stroke="#715cc0" stroke-miterlimit="10" stroke-width="0.75"/>
    <line id="Line_28" data-name="Line 28" y2="58.117" transform="translate(973.414 77)" fill="#50254d" stroke="#715cc0" stroke-miterlimit="10" stroke-width="0.75"/>
    <rect id="Rectangle_115" data-name="Rectangle 115" width="25.103" height="83.524" transform="translate(919.404 160.448)" fill="#c6c2f7" stroke="#fff" stroke-miterlimit="10" stroke-width="1"/>
    <line id="Line_29" data-name="Line 29" x1="1.826" y2="84.437" transform="translate(930.358 160.22)" fill="none" stroke="#fff" stroke-miterlimit="10" stroke-width="1"/>
    <line id="Line_30" data-name="Line 30" x2="24.925" y2="0.406" transform="translate(919.176 183.599)" fill="none" stroke="#fff" stroke-miterlimit="10" stroke-width="1"/>
    <line id="Line_31" data-name="Line 31" x2="25.331" y2="0.406" transform="translate(919.176 208.981)" fill="none" stroke="#fff" stroke-miterlimit="10" stroke-width="1"/>
    <rect id="Rectangle_116" data-name="Rectangle 116" width="24.925" height="98.612" transform="translate(955.994 258.578)" fill="#c6c2f7" stroke="#fff" stroke-miterlimit="10" stroke-width="1"/>
    <line id="Line_32" data-name="Line 32" x1="1.826" y2="99.702" transform="translate(966.872 258.299)" fill="none" stroke="#fff" stroke-miterlimit="10" stroke-width="1"/>
    <line id="Line_33" data-name="Line 33" x2="24.748" y2="0.482" transform="translate(955.765 285.913)" fill="none" stroke="#fff" stroke-miterlimit="10" stroke-width="1"/>
    <line id="Line_34" data-name="Line 34" x2="25.154" y2="0.456" transform="translate(955.765 315.884)" fill="none" stroke="#fff" stroke-miterlimit="10" stroke-width="1"/>
    <rect id="Rectangle_117" data-name="Rectangle 117" width="30.656" height="106.345" transform="translate(911.011 391.345)" fill="#c6c2f7" stroke="#fff" stroke-miterlimit="10" stroke-width="1"/>
    <line id="Line_35" data-name="Line 35" x1="2.231" y2="107.512" transform="translate(924.399 391.066)" fill="none" stroke="#fff" stroke-miterlimit="10" stroke-width="1"/>
    <line id="Line_36" data-name="Line 36" x2="30.453" y2="0.507" transform="translate(910.732 420.835)" fill="none" stroke="#fff" stroke-miterlimit="10" stroke-width="1"/>
    <line id="Line_37" data-name="Line 37" x2="30.935" y2="0.507" transform="translate(910.732 453.139)" fill="none" stroke="#fff" stroke-miterlimit="10" stroke-width="1"/>
    <rect id="Rectangle_118" data-name="Rectangle 118" width="23.328" height="106.345" transform="translate(961.065 463.155)" fill="#c6c2f7" stroke="#fff" stroke-miterlimit="10" stroke-width="1"/>
    <line id="Line_38" data-name="Line 38" x1="1.699" y2="107.512" transform="translate(971.233 462.876)" fill="none" stroke="#fff" stroke-miterlimit="10" stroke-width="1"/>
    <line id="Line_39" data-name="Line 39" x2="23.151" y2="0.507" transform="translate(960.837 492.645)" fill="none" stroke="#fff" stroke-miterlimit="10" stroke-width="1"/>
    <line id="Line_40" data-name="Line 40" x2="23.531" y2="0.507" transform="translate(960.837 524.949)" fill="none" stroke="#fff" stroke-miterlimit="10" stroke-width="1"/>
    <path id="Path_118" data-name="Path 118" d="M398.306,260.98c3.626-1.471,25.864-10.7,25.559-21.908,0-3.322-2.13-5.578-1.217-9.737,1.242-5.6,6.314-7.607,12.171-12.171.964-.735,20.057-15.848,17.04-27.892a12.323,12.323,0,0,0-7.911-8.52c-6.77-2.1-14.073,4.006-19.474,8.52-11.208,9.407-13.566,17.952-17.75,17.04-3.068-.685-5.426-6.415-4.26-10.345s5.071-4.26,5.477-7.3-3.3-7.252-7.3-8.52c-9.61-3.017-25.889,9.052-34.688,22.517-3.22,5.071-6.288,11.385-12.171,12.171a14,14,0,0,1-7.911-1.826c-7-3.575-6.973-9.281-10.954-9.737-5.2-.583-10.345,8.647-10.954,9.737-3.88,6.948-1.9,10.574-5.477,13.388s-10.143,2.333-14.605,0c-7.3-3.93-6.086-11.284-12.171-13.388-6.542-2.257-13.9,4.235-14.605,4.868-6.618,5.984-7.024,14.859-7.3,20.691a45.135,45.135,0,0,0,3.043,18.865C284.734,283.471,360.373,276.346,398.306,260.98Z" transform="translate(597.32 352.92)" fill="#50254d"/>
    <rect id="Rectangle_119" data-name="Rectangle 119" width="102.846" height="319.492" transform="translate(776.064 296.841)" fill="#883b6b"/>
    <line id="Line_44" data-name="Line 44" x1="2.967" y2="319.366" transform="translate(855.633 295.523)" fill="none" stroke="#fff" stroke-miterlimit="10" stroke-width="1"/>
    <line id="Line_45" data-name="Line 45" y1="3.448" x2="102.745" transform="translate(774.77 310.965)" fill="none" stroke="#fff" stroke-miterlimit="10" stroke-width="1"/>
    <line id="Line_46" data-name="Line 46" y1="2.46" x2="103.404" transform="translate(773.908 355.136)" fill="none" stroke="#fff" stroke-miterlimit="10" stroke-width="1"/>
    <line id="Line_47" data-name="Line 47" y1="0.913" x2="102.694" transform="translate(774.72 549.747)" fill="none" stroke="#fff" stroke-miterlimit="10" stroke-width="1"/>
    <line id="Line_48" data-name="Line 48" y1="4.108" x2="103.15" transform="translate(774.948 592.194)" fill="none" stroke="#fff" stroke-miterlimit="10" stroke-width="1"/>
    <line id="Line_49" data-name="Line 49" y1="2.46" x2="103.404" transform="translate(773.908 382.141)" fill="none" stroke="#fff" stroke-miterlimit="10" stroke-width="1"/>
    <line id="Line_50" data-name="Line 50" y1="2.46" x2="103.404" transform="translate(773.908 423.599)" fill="none" stroke="#fff" stroke-miterlimit="10" stroke-width="1"/>
    <line id="Line_51" data-name="Line 51" y1="2.46" x2="103.404" transform="translate(773.908 487.954)" fill="none" stroke="#fff" stroke-miterlimit="10" stroke-width="1"/>
    <path id="Path_121" data-name="Path 121" d="M276.848,238.454l109.439-36.843c1.141-.38.659-2.231-.507-1.826L276.341,236.628C275.174,237.008,275.681,238.859,276.848,238.454Z" transform="translate(606.449 383.712)" fill="#fff"/>
    <path id="Path_122" data-name="Path 122" d="M308.01,205.437a103.961,103.961,0,0,0,33.8,3.271c1.217,0,1.217-1.978,0-1.9a102.34,102.34,0,0,1-33.293-3.195.947.947,0,0,0-.507,1.826Z" transform="translate(655.032 389.623)" fill="#fff"/>
    <path id="Path_123" data-name="Path 123" d="M298.152,216.814l.837-14.605a.951.951,0,0,0-1.9,0l-.837,14.605A.951.951,0,0,0,298.152,216.814Z" transform="translate(638.038 386.106)" fill="#fff"/>
  </g>
</svg>
