<svg xmlns="http://www.w3.org/2000/svg" width="393.33" height="460.835" viewBox="0 0 393.33 460.835">
  <g id="footer" transform="translate(954 -174.601)">
    <rect id="Rectangle_77" data-name="Rectangle 77" width="9.458" height="2.992" transform="translate(-777.899 573.028)" fill="#4b4b4b"/>
    <rect id="Rectangle_78" data-name="Rectangle 78" width="39.1" height="3.829" transform="translate(-771.049 572.989) rotate(-45)" fill="#4b4b4b"/>
    <rect id="Rectangle_79" data-name="Rectangle 79" width="64.938" height="3.829" transform="matrix(0.338, -0.941, 0.941, 0.338, -777.889, 573.065)" fill="#4b4b4b"/>
    <rect id="Rectangle_80" data-name="Rectangle 80" width="21.807" height="3.829" transform="translate(-756.245 514.074) rotate(-90)" fill="#4b4b4b"/>
    <rect id="Rectangle_81" data-name="Rectangle 81" width="92.171" height="3.829" transform="translate(-782.134 488.717)" fill="#4b4b4b"/>
    <rect id="Rectangle_82" data-name="Rectangle 82" width="32.228" height="3.829" transform="matrix(0.892, 0.453, -0.453, 0.892, -719.009, 474.436)" fill="#4b4b4b"/>
    <rect id="Rectangle_83" data-name="Rectangle 83" width="32.228" height="3.829" transform="matrix(-0.892, 0.453, -0.453, -0.892, -751.177, 477.743)" fill="#4b4b4b"/>
    <rect id="Rectangle_84" data-name="Rectangle 84" width="34.054" height="3.829" transform="translate(-719.047 478.169) rotate(180)" fill="#4b4b4b"/>
    <rect id="Rectangle_85" data-name="Rectangle 85" width="86.238" height="3.575" transform="translate(-778.204 456.768)" fill="#4b4b4b"/>
    <rect id="Rectangle_86" data-name="Rectangle 86" width="30.149" height="3.575" transform="matrix(0.892, 0.453, -0.453, 0.892, -719.142, 443.423)" fill="#4b4b4b"/>
    <rect id="Rectangle_87" data-name="Rectangle 87" width="30.149" height="3.575" transform="matrix(-0.892, 0.453, -0.453, -0.892, -749.256, 446.508)" fill="#4b4b4b"/>
    <rect id="Rectangle_88" data-name="Rectangle 88" width="31.848" height="3.575" transform="translate(-719.174 446.904) rotate(180)" fill="#4b4b4b"/>
    <rect id="Rectangle_89" data-name="Rectangle 89" width="30.707" height="4.437" transform="translate(-750.819 475.684) rotate(-90)" fill="#4b4b4b"/>
    <rect id="Rectangle_90" data-name="Rectangle 90" width="29.338" height="4.437" transform="translate(-723.56 475.177) rotate(-90)" fill="#4b4b4b"/>
    <rect id="Rectangle_91" data-name="Rectangle 91" width="41.458" height="3.829" transform="translate(-701.494 577.337) rotate(-135)" fill="#4b4b4b"/>
    <rect id="Rectangle_92" data-name="Rectangle 92" width="64.482" height="3.829" transform="matrix(-0.338, -0.941, 0.941, -0.338, -695.54, 576.042)" fill="#4b4b4b"/>
    <rect id="Rectangle_93" data-name="Rectangle 93" width="26.219" height="3.829" transform="translate(-717.272 515.747) rotate(-90)" fill="#4b4b4b"/>
    <rect id="Rectangle_94" data-name="Rectangle 94" width="9.483" height="2.789" transform="translate(-701.5 574.651)" fill="#4b4b4b"/>
    <rect id="Rectangle_95" data-name="Rectangle 95" width="61.084" height="4.868" transform="translate(-766.692 543.995)" fill="#4b4b4b"/>
    <rect id="Rectangle_96" data-name="Rectangle 96" width="37.274" height="4.311" transform="translate(-753.202 509.282)" fill="#4b4b4b"/>
    <rect id="Rectangle_97" data-name="Rectangle 97" width="5.452" height="57.154" transform="translate(-718.678 509.891) rotate(53.57)" fill="#4b4b4b"/>
    <rect id="Rectangle_98" data-name="Rectangle 98" width="5.452" height="57.382" transform="matrix(-0.606, 0.795, -0.795, -0.606, -705.702, 544.14)" fill="#4b4b4b"/>
    <path id="Path_94" data-name="Path 94" d="M78.8,175.818l1.724,2.916,38.086-18.662-1.75-2.941Z" transform="translate(-832.89 332.297)" fill="#4b4b4b"/>
    <path id="Path_95" data-name="Path 95" d="M119.056,175.049l-1.623,2.992L78.46,160.672l1.623-2.992Z" transform="translate(-833.412 333.142)" fill="#4b4b4b"/>
    <rect id="Rectangle_99" data-name="Rectangle 99" width="20.235" height="3.829" transform="translate(-745.215 408.058)" fill="#4b4b4b"/>
    <path id="Path_96" data-name="Path 96" d="M93.269,161.716l3.677-.076L92.762,125.05l-3.7.076Z" transform="translate(-817.134 283.034)" fill="#4b4b4b"/>
    <path id="Path_97" data-name="Path 97" d="M84.138,161.731l-3.778-.1,4.235-36.589,3.778.1Z" transform="translate(-830.494 283.018)" fill="#4b4b4b"/>
    <path id="Path_98" data-name="Path 98" d="M246.114,364.048l-1.826-205.692-44.425-.609-1.826-37.731L95.8,114.54V361.614Z" transform="translate(-806.783 266.894)" fill="#4b4ae0"/>
    <rect id="Rectangle_100" data-name="Rectangle 100" width="82.612" height="316.754" transform="translate(-860.232 315.558)" fill="#a58ef7"/>
    <path id="Path_103" data-name="Path 103" d="M12.61,32.97v447.9H131.887V115.734Z" transform="translate(-934.535 141.631)" fill="#f5e4c6"/>
    <path id="Path_105" data-name="Path 105" d="M18.2,66.09l1.217,22.517,93.743-1.826-1.242-17.648Z" transform="translate(-925.95 192.491)" fill="#f7d99e"/>
    <path id="Path_106" data-name="Path 106" d="M19.29,79.787l1.217,12.78L108.723,87.7,106.9,78.57Z" transform="translate(-924.276 211.656)" fill="#f7cf8d"/>
    <path id="Path_107" data-name="Path 107" d="M19.29,91.358l.583,15.214,88.849-3.651-.583-16.431Z" transform="translate(-924.276 223.819)" fill="#f2cd44"/>
    <path id="Path_108" data-name="Path 108" d="M19.16,99.467l.634,14,89.458-.609L106.818,98.25Z" transform="translate(-924.476 241.878)" fill="#f3bf38"/>
    <path id="Path_109" data-name="Path 109" d="M18.32,113.456l1.217,12.171,93.109-1.217-2.434-17.04Z" transform="translate(-925.766 255.883)" fill="#f7d190"/>
    <path id="Path_110" data-name="Path 110" d="M17.96,121.53v18.257l96.152.609-.583-15.214Z" transform="translate(-926.319 277.628)" fill="#f7d497"/>
    <path id="Path_111" data-name="Path 111" d="M17.713,136.958,17.13,153.39l97.344,3.651,3.068-24.951Z" transform="translate(-927.593 293.845)" fill="#f7d08c"/>
    <path id="Path_112" data-name="Path 112" d="M15.93,147.21l4.26,21.908L122.4,171.552l-7.277-23.734Z" transform="translate(-929.436 317.064)" fill="#f7d296"/>
    <path id="Path_113" data-name="Path 113" d="M30.489,305.443c-.938,1.75,0,3.423-1.369,4.412C24,313.507-.193,297.456.619,280.949c0-.609.532-8.951,5.325-11.106,4.336-1.952,9.357,2.384,11.867.152,1.116-.989,1.5-3.043.456-7.151-3.8-14.986-16.811-17.927-18.206-30.124-.406-3.981.355-9.483,3.347-10.954s5.731,1.5,8.216,0,2.536-6.238,2.13-9.433c-1.192-12.1-7.049-15.848-10.345-26.168C.061,174.933.543,159.542,8.987,152.391a12.983,12.983,0,0,1,8.52-3.651c7.861.228,13.414,10.624,20.691,25.864,13.794,28.83,24.266,55,34.383,56.9a18.789,18.789,0,0,0,11.157-.964C86.273,229.247,86.78,228,88.3,227.8c2.992-.2,5.071,4.615,10.143,14.605,6.745,13.794,7.252,14.3,8.216,14.91,6.39,3.956,12.5-1.674,20.691,3.347a16.761,16.761,0,0,1,5.477,5.071c2.536,3.677,1.395,5.6,3.043,8.52,2.536,4.691,7.277,3.271,13.084,7.607,4.032,3.017,8.545,8.723,8.216,14-.482,8.089-12.171,13.287-15.822,14.91C101.234,328.771,36.853,293.779,30.489,305.443Z" transform="translate(-953.96 319.413)" fill="#a58ef7"/>
    <path id="Path_114" data-name="Path 114" d="M85.073,103.091,185.484,98.07l5.021,288.912-119.125.456Z" transform="translate(-844.284 241.602)" fill="#2c2c9a"/>
    <rect id="Rectangle_102" data-name="Rectangle 102" width="34.231" height="79.417" transform="translate(-747.801 439.627)" fill="#3435bf"/>
    <rect id="Rectangle_120" data-name="Rectangle 120" width="111.975" height="15.062" transform="translate(-842.432 375.805)" fill="#f67189"/>
    <rect id="Rectangle_121" data-name="Rectangle 121" width="112.025" height="45.236" transform="translate(-842.406 390.638)" fill="#de485a"/>
    <rect id="Rectangle_122" data-name="Rectangle 122" width="0.913" height="46.326" transform="translate(-806.781 390.08)" fill="#f6e8cd"/>
    <rect id="Rectangle_123" data-name="Rectangle 123" width="0.913" height="46.326" transform="translate(-766.895 390.08)" fill="#f6e8cd"/>
    <rect id="Rectangle_124" data-name="Rectangle 124" width="0.609" height="109.413" transform="translate(-841.088 415.386) rotate(-90)" fill="#f6e8cd"/>
    <rect id="Rectangle_125" data-name="Rectangle 125" width="112.025" height="23.835" transform="translate(-837.031 435.519)" fill="#de485a"/>
    <rect id="Rectangle_126" data-name="Rectangle 126" width="0.913" height="24.418" transform="translate(-801.405 435.215)" fill="#f6e8cd"/>
    <rect id="Rectangle_127" data-name="Rectangle 127" width="0.913" height="24.418" transform="translate(-761.519 435.215)" fill="#f6e8cd"/>
    <rect id="Rectangle_128" data-name="Rectangle 128" width="112.025" height="34.815" transform="translate(-847.985 458.771)" fill="#de485a"/>
    <rect id="Rectangle_129" data-name="Rectangle 129" width="0.913" height="35.677" transform="translate(-812.359 458.34)" fill="#f6e8cd"/>
    <rect id="Rectangle_130" data-name="Rectangle 130" width="0.913" height="35.677" transform="translate(-772.473 458.34)" fill="#f6e8cd"/>
    <rect id="Rectangle_131" data-name="Rectangle 131" width="112.025" height="54.719" transform="translate(-830.337 493.713)" fill="#de485a"/>
    <rect id="Rectangle_132" data-name="Rectangle 132" width="0.913" height="56.038" transform="translate(-794.711 493.028)" fill="#f6e8cd"/>
    <rect id="Rectangle_133" data-name="Rectangle 133" width="0.913" height="56.038" transform="translate(-754.825 493.028)" fill="#f6e8cd"/>
    <rect id="Rectangle_134" data-name="Rectangle 134" width="0.735" height="109.413" transform="translate(-829.018 523.633) rotate(-90)" fill="#f6e8cd"/>
    <rect id="Rectangle_135" data-name="Rectangle 135" width="112.025" height="54.035" transform="translate(-854.375 548.255)" fill="#de485a"/>
    <rect id="Rectangle_136" data-name="Rectangle 136" width="0.913" height="55.328" transform="translate(-818.749 547.595)" fill="#f6e8cd"/>
    <rect id="Rectangle_137" data-name="Rectangle 137" width="0.913" height="55.328" transform="translate(-778.863 547.595)" fill="#f6e8cd"/>
    <rect id="Rectangle_138" data-name="Rectangle 138" width="112.025" height="20.057" transform="translate(-848.492 602.416)" fill="#de485a"/>
    <rect id="Rectangle_139" data-name="Rectangle 139" width="0.913" height="20.539" transform="translate(-812.866 602.163)" fill="#f6e8cd"/>
    <rect id="Rectangle_140" data-name="Rectangle 140" width="0.913" height="20.539" transform="translate(-772.98 602.163)" fill="#f6e8cd"/>
    <path id="Path_124" data-name="Path 124" d="M72.355,249.392A194.485,194.485,0,0,0,17.2,188.105c-.989-.71-1.952.938-.964,1.648A192,192,0,0,1,70.707,250.33a.964.964,0,0,0,1.648-.964Z" transform="translate(-929.595 379.598)" fill="#fff"/>
    <path id="Path_125" data-name="Path 125" d="M49.038,199.41l-31.949,1.116a.964.964,0,0,0,0,1.9l31.949-1.116a.964.964,0,0,0,0-1.9Z" transform="translate(-928.897 397.225)" fill="#fff"/>
  </g>
</svg>
