<svg xmlns="http://www.w3.org/2000/svg" width="120.312" height="139.76" viewBox="0 0 120.312 139.76">
  <g id="draty" transform="translate(-26.59 -26.342)">
    <path id="Path_80" data-name="Path 80" d="M65.756,138.385,62.18,136.32l19.259-31.96,2.309,1.305Z" transform="translate(-5.815 -12.748)" fill="none" stroke="#484848" stroke-miterlimit="10" stroke-width="1"/>
    <path id="Path_81" data-name="Path 81" d="M71.911,144.447l-3.1-2.733,25.216-27.5,2,1.738Zm32.444-18.776-1.755-1.989-28.658,23.9,2.7,3.121Z" transform="translate(-6.9 -14.358)" fill="none" stroke="#484848" stroke-miterlimit="10" stroke-width="1"/>
    <path id="Path_82" data-name="Path 82" d="M83.592,104.36l2.309,1.305-7.78,13.7-2.761-1.2Z" transform="translate(-7.969 -12.748)" fill="#484848"/>
    <path id="Path_83" data-name="Path 83" d="M96.886,114.135l2.026,1.712L88.718,127.864l-2.488-1.7Z" transform="translate(-9.745 -14.346)" fill="#484848"/>
    <path id="Path_84" data-name="Path 84" d="M106.5,125.631l1.8,1.945-11.578,10.69-2.264-1.987Z" transform="translate(-11.09 -16.224)" fill="#484848"/>
    <path id="Path_85" data-name="Path 85" d="M130.644,76.637l3.746,1.737-16.328,33.552-2.416-1.094Z" transform="translate(-14.552 -8.218)" fill="none" stroke="#484848" stroke-miterlimit="10" stroke-width="1"/>
    <path id="Path_86" data-name="Path 86" d="M122.864,71.877l3.327,2.446L103.533,103.97l-2.151-1.551Z" transform="translate(-12.221 -7.441)" fill="none" stroke="#484848" stroke-miterlimit="10" stroke-width="1"/>
    <path id="Path_87" data-name="Path 87" d="M115.8,64.938l2.971,2.868-26.41,26.36-1.925-1.824Z" transform="translate(-10.433 -6.307)" fill="none" stroke="#484848" stroke-miterlimit="10" stroke-width="1"/>
    <path id="Path_88" data-name="Path 88" d="M118.062,115.8l-2.416-1.094,6.525-14.344,2.857.953Z" transform="translate(-14.552 -12.096)" fill="#484848"/>
    <path id="Path_89" data-name="Path 89" d="M103.526,107.5l-2.171-1.524,9.08-12.879,2.63,1.468Z" transform="translate(-12.217 -10.908)" fill="#484848"/>
    <path id="Path_90" data-name="Path 90" d="M92.7,97.117l-1.97-1.776L101.3,83.66l2.432,1.777Z" transform="translate(-10.48 -9.366)" fill="#484848"/>
    <rect id="Rectangle_75" data-name="Rectangle 75" width="19.098" height="43.306" transform="translate(57.212 121.976) rotate(45)" fill="#f2cd44"/>
    <path id="Path_126" data-name="Path 126" d="M0,0H19.1V43.306H0Z" transform="matrix(-0.767, -0.641, 0.641, -0.767, 119.136, 71.821)" fill="#f2cd44"/>
  </g>
</svg>
